<?xml version="1.0" encoding="utf-8"?>
<!-- Generator: Adobe Illustrator 18.0.0, SVG Export Plug-In . SVG Version: 6.00 Build 0)  -->
<!DOCTYPE svg PUBLIC "-//W3C//DTD SVG 1.1//EN" "http://www.w3.org/Graphics/SVG/1.1/DTD/svg11.dtd">
<svg version="1.1" id="Capa_1" xmlns="http://www.w3.org/2000/svg" xmlns:xlink="http://www.w3.org/1999/xlink" x="0px" y="0px"
	 viewBox="0 0 207 33" enable-background="new 0 0 207 33" xml:space="preserve">
<g>
	<g opacity="0.6">
		<path d="M25.2,7.3l-6.6,8.6c-0.4,0.5-0.6,1.1-0.6,1.7v8.9c0,2.2-1.8,4-4,3.9c-2.2,0-3.9-1.8-3.9-4v-0.7V15c0-0.6,0.2-1.2,0.6-1.7
			L17.9,4L19,2.5c1.3-1.7,3.8-2.1,5.5-0.7C26.2,3.1,26.6,5.6,25.2,7.3z M5.1,1C2.8,1,1,2.8,1,5.1s1.8,4.1,4.1,4.1s4.1-1.8,4.1-4.1
			S7.3,1,5.1,1z M38.4,10v2.1h2.8v9.3h2.6v-9.3h2.8V10H38.4z M50.8,16.7h3.9v-2.1h-3.9v-2.6h4.4V10h-7v11.4h7.1v-2.1h-4.5V16.7z
			 M60.8,17.4l2.5,4h3.1L63.5,17c1.4-0.6,2.1-1.7,2.1-3.4c0-1.1-0.4-2-1.2-2.6c-0.8-0.7-1.8-1-3.1-1h-3.9v11.4H60v-4H60.8z
			 M61.3,12.1c0.5,0,0.9,0.1,1.2,0.4c0.3,0.3,0.4,0.7,0.4,1.1c0,1.1-0.6,1.7-1.7,1.7H60v-3.2H61.3z M71.2,17.4l2.5,4h3.1L73.8,17
			c1.4-0.6,2.1-1.7,2.1-3.4c0-1.1-0.4-2-1.2-2.6c-0.8-0.7-1.8-1-3.1-1h-3.9v11.4h2.6v-4H71.2z M71.6,12.1c0.5,0,0.9,0.1,1.2,0.4
			c0.3,0.3,0.4,0.7,0.4,1.1c0,1.1-0.6,1.7-1.7,1.7h-1.2v-3.2H71.6z M80.9,21.4V10h-2.6v11.4H80.9z M82,10v2.1h2.8v9.3h2.6v-9.3h2.8
			V10H82z M100.3,19.9c1-1.1,1.5-2.5,1.5-4.2c0-1.8-0.5-3.2-1.5-4.2c-1-1.1-2.3-1.6-4-1.6c-1.7,0-3,0.5-4,1.6
			c-1,1.1-1.5,2.5-1.5,4.2c0,1.8,0.5,3.2,1.5,4.2c1,1.1,2.3,1.6,4,1.6C97.9,21.5,99.3,21,100.3,19.9z M96.3,12.2
			c0.8,0,1.5,0.3,2,0.9c0.5,0.6,0.7,1.5,0.7,2.5c0,1.1-0.2,1.9-0.7,2.5c-0.5,0.6-1.2,0.9-2,0.9c-0.8,0-1.5-0.3-2-0.9
			c-0.5-0.6-0.7-1.5-0.7-2.5c0-1.1,0.2-1.9,0.7-2.5C94.7,12.5,95.4,12.2,96.3,12.2z M106.6,17.4l2.5,4h3.1l-2.9-4.4
			c1.4-0.6,2.1-1.7,2.1-3.4c0-1.1-0.4-2-1.2-2.6c-0.8-0.7-1.8-1-3.1-1h-3.9v11.4h2.6v-4H106.6z M107.1,12.1c0.5,0,0.9,0.1,1.2,0.4
			c0.3,0.3,0.4,0.7,0.4,1.1c0,1.1-0.6,1.7-1.7,1.7h-1.2v-3.2H107.1z M116.4,21.4V10h-2.6v11.4H116.4z M127.3,19.9
			c1-1.1,1.5-2.5,1.5-4.2c0-1.8-0.5-3.2-1.5-4.2c-1-1.1-2.3-1.6-4-1.6c-1.7,0-3,0.5-4,1.6c-1,1.1-1.5,2.5-1.5,4.2
			c0,1.8,0.5,3.2,1.5,4.2c1,1.1,2.3,1.6,4,1.6C124.9,21.5,126.2,21,127.3,19.9z M123.2,12.2c0.8,0,1.5,0.3,2,0.9
			c0.5,0.6,0.7,1.5,0.7,2.5c0,1.1-0.2,1.9-0.7,2.5c-0.5,0.6-1.2,0.9-2,0.9c-0.8,0-1.5-0.3-2-0.9c-0.5-0.6-0.7-1.5-0.7-2.5
			c0-1.1,0.2-1.9,0.7-2.5C121.7,12.5,122.4,12.2,123.2,12.2z M141.1,17.2L145,10h-3l-0.7,1.7c-0.9,1.9-1.4,3.1-1.5,3.7
			c-0.3-0.8-1-2.6-2.1-5.3h-3l3.9,7.2v4.2h2.6V17.2z M154.8,21.4L151,10h-3.3l-3.8,11.4h2.7l0.7-2.3h4l0.7,2.3H154.8z M149.3,11.9
			c0.2,0.8,0.6,2.5,1.4,5.1H148C148.8,14.1,149.3,12.4,149.3,11.9z M163.7,10.5c-0.7-0.4-1.7-0.6-3-0.6c-1.7,0-3.2,0.5-4.3,1.6
			c-1.1,1.1-1.6,2.5-1.6,4.2c0,1.7,0.6,3.1,1.7,4.2c1.1,1.1,2.5,1.6,4.2,1.6c1.3,0,2.3-0.2,3-0.6v-2.6c-0.8,0.5-1.6,0.8-2.7,0.8
			c-1,0-1.8-0.3-2.5-0.9c-0.6-0.6-0.9-1.5-0.9-2.5c0-1.1,0.3-1.9,0.9-2.5c0.6-0.6,1.4-1,2.4-1c1,0,1.9,0.3,2.7,0.8V10.5z
			 M174.5,19.9c1-1.1,1.5-2.5,1.5-4.2c0-1.8-0.5-3.2-1.5-4.2c-1-1.1-2.3-1.6-4-1.6c-1.7,0-3,0.5-4,1.6c-1,1.1-1.5,2.5-1.5,4.2
			c0,1.8,0.5,3.2,1.5,4.2c1,1.1,2.3,1.6,4,1.6C172.1,21.5,173.5,21,174.5,19.9z M170.4,12.2c0.8,0,1.5,0.3,2,0.9
			c0.5,0.6,0.7,1.5,0.7,2.5c0,1.1-0.2,1.9-0.7,2.5c-0.5,0.6-1.2,0.9-2,0.9s-1.5-0.3-2-0.9c-0.5-0.6-0.7-1.5-0.7-2.5
			c0-1.1,0.2-1.9,0.7-2.5C168.9,12.5,169.6,12.2,170.4,12.2z M177.4,21.4h2.6v-3.7h1.3c1.2,0,2.2-0.3,3-1c0.8-0.7,1.2-1.6,1.2-2.8
			c0-1.2-0.4-2.1-1.2-2.8c-0.8-0.7-1.8-1.1-3.1-1.1h-3.9V21.4z M180,12.1h1.3c0.5,0,0.9,0.2,1.2,0.6c0.3,0.3,0.4,0.7,0.4,1.2
			c0,0.5-0.1,0.9-0.4,1.2c-0.3,0.3-0.7,0.5-1.2,0.6H180V12.1z M189.4,21.4V10h-2.6v11.4H189.4z M194,21.4v-4.7
			c0-1.3-0.1-2.5-0.3-3.5l0.1,0.4c0.3,0.9,0.8,1.9,1.5,3.1l2.7,4.7h2.9V10h-2.6v4.7c0,1.5,0.1,2.6,0.2,3.5c-0.3-0.9-0.9-2.1-1.6-3.5
			l-2.7-4.7h-2.9v11.4H194z M205.6,21.4V10H203v11.4H205.6z"/>
	</g>
	<g>
		<path fill="#DB6142" d="M25.2,8.3l-6.6,8.6c-0.4,0.5-0.6,1.1-0.6,1.7v8.9c0,2.2-1.8,4-4,3.9c-2.2,0-3.9-1.8-3.9-4v-0.7V16
			c0-0.6,0.2-1.2,0.6-1.7L17.9,5L19,3.5c1.3-1.7,3.8-2.1,5.5-0.7C26.2,4.1,26.6,6.6,25.2,8.3z M5.1,2C2.8,2,1,3.8,1,6.1
			s1.8,4.1,4.1,4.1s4.1-1.8,4.1-4.1S7.3,2,5.1,2z M38.4,11v2.1h2.8v9.3h2.6v-9.3h2.8V11H38.4z M50.8,17.7h3.9v-2.1h-3.9v-2.6h4.4V11
			h-7v11.4h7.1v-2.1h-4.5V17.7z M60.8,18.4l2.5,4h3.1L63.5,18c1.4-0.6,2.1-1.7,2.1-3.4c0-1.1-0.4-2-1.2-2.6c-0.8-0.7-1.8-1-3.1-1
			h-3.9v11.4H60v-4H60.8z M61.3,13.1c0.5,0,0.9,0.1,1.2,0.4c0.3,0.3,0.4,0.7,0.4,1.1c0,1.1-0.6,1.7-1.7,1.7H60v-3.2H61.3z
			 M71.2,18.4l2.5,4h3.1L73.8,18c1.4-0.6,2.1-1.7,2.1-3.4c0-1.1-0.4-2-1.2-2.6c-0.8-0.7-1.8-1-3.1-1h-3.9v11.4h2.6v-4H71.2z
			 M71.6,13.1c0.5,0,0.9,0.1,1.2,0.4c0.3,0.3,0.4,0.7,0.4,1.1c0,1.1-0.6,1.7-1.7,1.7h-1.2v-3.2H71.6z M80.9,22.4V11h-2.6v11.4H80.9z
			 M82,11v2.1h2.8v9.3h2.6v-9.3h2.8V11H82z M100.3,20.9c1-1.1,1.5-2.5,1.5-4.2c0-1.8-0.5-3.2-1.5-4.2c-1-1.1-2.3-1.6-4-1.6
			c-1.7,0-3,0.5-4,1.6c-1,1.1-1.5,2.5-1.5,4.2c0,1.8,0.5,3.2,1.5,4.2c1,1.1,2.3,1.6,4,1.6C97.9,22.5,99.3,22,100.3,20.9z M96.3,13.2
			c0.8,0,1.5,0.3,2,0.9c0.5,0.6,0.7,1.5,0.7,2.5c0,1.1-0.2,1.9-0.7,2.5c-0.5,0.6-1.2,0.9-2,0.9c-0.8,0-1.5-0.3-2-0.9
			c-0.5-0.6-0.7-1.5-0.7-2.5c0-1.1,0.2-1.9,0.7-2.5C94.7,13.5,95.4,13.2,96.3,13.2z M106.6,18.4l2.5,4h3.1l-2.9-4.4
			c1.4-0.6,2.1-1.7,2.1-3.4c0-1.1-0.4-2-1.2-2.6c-0.8-0.7-1.8-1-3.1-1h-3.9v11.4h2.6v-4H106.6z M107.1,13.1c0.5,0,0.9,0.1,1.2,0.4
			c0.3,0.3,0.4,0.7,0.4,1.1c0,1.1-0.6,1.7-1.7,1.7h-1.2v-3.2H107.1z M116.4,22.4V11h-2.6v11.4H116.4z M127.3,20.9
			c1-1.1,1.5-2.5,1.5-4.2c0-1.8-0.5-3.2-1.5-4.2c-1-1.1-2.3-1.6-4-1.6c-1.7,0-3,0.5-4,1.6c-1,1.1-1.5,2.5-1.5,4.2
			c0,1.8,0.5,3.2,1.5,4.2c1,1.1,2.3,1.6,4,1.6C124.9,22.5,126.2,22,127.3,20.9z M123.2,13.2c0.8,0,1.5,0.3,2,0.9
			c0.5,0.6,0.7,1.5,0.7,2.5c0,1.1-0.2,1.9-0.7,2.5c-0.5,0.6-1.2,0.9-2,0.9c-0.8,0-1.5-0.3-2-0.9c-0.5-0.6-0.7-1.5-0.7-2.5
			c0-1.1,0.2-1.9,0.7-2.5C121.7,13.5,122.4,13.2,123.2,13.2z M141.1,18.2L145,11h-3l-0.7,1.7c-0.9,1.9-1.4,3.1-1.5,3.7
			c-0.3-0.8-1-2.6-2.1-5.3h-3l3.9,7.2v4.2h2.6V18.2z M154.8,22.4L151,11h-3.3l-3.8,11.4h2.7l0.7-2.3h4l0.7,2.3H154.8z M149.3,12.9
			c0.2,0.8,0.6,2.5,1.4,5.1H148C148.8,15.1,149.3,13.4,149.3,12.9z M163.7,11.5c-0.7-0.4-1.7-0.6-3-0.6c-1.7,0-3.2,0.5-4.3,1.6
			c-1.1,1.1-1.6,2.5-1.6,4.2c0,1.7,0.6,3.1,1.7,4.2c1.1,1.1,2.5,1.6,4.2,1.6c1.3,0,2.3-0.2,3-0.6v-2.6c-0.8,0.5-1.6,0.8-2.7,0.8
			c-1,0-1.8-0.3-2.5-0.9c-0.6-0.6-0.9-1.5-0.9-2.5c0-1.1,0.3-1.9,0.9-2.5c0.6-0.6,1.4-1,2.4-1c1,0,1.9,0.3,2.7,0.8V11.5z
			 M174.5,20.9c1-1.1,1.5-2.5,1.5-4.2c0-1.8-0.5-3.2-1.5-4.2c-1-1.1-2.3-1.6-4-1.6c-1.7,0-3,0.5-4,1.6c-1,1.1-1.5,2.5-1.5,4.2
			c0,1.8,0.5,3.2,1.5,4.2c1,1.1,2.3,1.6,4,1.6C172.1,22.5,173.5,22,174.5,20.9z M170.4,13.2c0.8,0,1.5,0.3,2,0.9
			c0.5,0.6,0.7,1.5,0.7,2.5c0,1.1-0.2,1.9-0.7,2.5c-0.5,0.6-1.2,0.9-2,0.9s-1.5-0.3-2-0.9c-0.5-0.6-0.7-1.5-0.7-2.5
			c0-1.1,0.2-1.9,0.7-2.5C168.9,13.5,169.6,13.2,170.4,13.2z M177.4,22.4h2.6v-3.7h1.3c1.2,0,2.2-0.3,3-1c0.8-0.7,1.2-1.6,1.2-2.8
			c0-1.2-0.4-2.1-1.2-2.8c-0.8-0.7-1.8-1.1-3.1-1.1h-3.9V22.4z M180,13.1h1.3c0.5,0,0.9,0.2,1.2,0.6c0.3,0.3,0.4,0.7,0.4,1.2
			c0,0.5-0.1,0.9-0.4,1.2c-0.3,0.3-0.7,0.5-1.2,0.6H180V13.1z M189.4,22.4V11h-2.6v11.4H189.4z M194,22.4v-4.7
			c0-1.3-0.1-2.5-0.3-3.5l0.1,0.4c0.3,0.9,0.8,1.9,1.5,3.1l2.7,4.7h2.9V11h-2.6v4.7c0,1.5,0.1,2.6,0.2,3.5c-0.3-0.9-0.9-2.1-1.6-3.5
			l-2.7-4.7h-2.9v11.4H194z M205.6,22.4V11H203v11.4H205.6z"/>
	</g>
</g>
</svg>
